<?xml version="1.0" encoding="UTF-8"?>
<svg id="Anchors" xmlns="http://www.w3.org/2000/svg" xmlns:xlink="http://www.w3.org/1999/xlink" viewBox="0 0 1920 1080">
  <defs>
    <style>
      .cls-1 {
        fill: #75be00;
      }

      .cls-1, .cls-2 {
        stroke-width: 0px;
      }

      .cls-2 {
        fill: url(#Sfumatura_senza_nome_14);
      }
    </style>
    <linearGradient id="Sfumatura_senza_nome_14" data-name="Sfumatura senza nome 14" x1="727.52" y1="519.06" x2="1384.13" y2="519.06" gradientUnits="userSpaceOnUse">
      <stop offset="0" stop-color="#000" stop-opacity=".7"/>
      <stop offset=".15" stop-color="#000" stop-opacity=".85"/>
      <stop offset=".99" stop-color="#000"/>
    </linearGradient>
  </defs>
  <g>
    <path class="cls-1" d="m681.24,600.83c-11.46,11.79-26.53,20.13-42.76,23.51-16.2,3.45-33.47,1.99-48.97-4.23-15.51-6.17-29.13-17.09-38.63-30.95-9.55-13.84-14.84-30.62-15.02-47.53-.22-16.92,4.67-33.94,14.01-48.21,9.29-14.29,22.9-25.79,38.71-32.52,15.78-6.78,33.62-8.75,50.6-5.56,4.25.79,8.43,1.92,12.53,3.3,4.1,1.4,8.07,3.15,11.93,5.12,3.86,1.99,7.53,4.32,11.06,6.84,3.52,2.55,6.81,5.39,9.95,8.39l-8.61,8.61c-10.47-10.79-24.18-18.4-39-21.51-14.8-3.17-30.59-1.85-44.74,3.81-14.16,5.61-26.64,15.59-35.34,28.26-8.74,12.64-13.6,27.97-13.78,43.46-.22,15.49,4.24,31.07,12.78,44.14,8.49,13.09,20.97,23.66,35.42,29.83,14.44,6.22,30.8,8.06,46.38,5.14,15.59-2.85,30.3-10.48,41.72-21.65l1.75,1.75Z"/>
    <path class="cls-1" d="m634.06,603.43c-10.58,2.24-21.77,1.73-32.19-1.54-10.43-3.23-20-9.3-27.53-17.33-3.73-4.04-7.02-8.54-9.64-13.42-2.6-4.88-4.64-10.09-5.91-15.51-2.63-10.81-2.37-22.34.7-33.14,1.56-5.39,3.76-10.62,6.68-15.45,1.41-2.45,3.07-4.74,4.78-6.99,1.78-2.19,3.62-4.34,5.67-6.3,8.03-7.99,18.27-13.81,29.31-16.78,11.05-2.92,22.9-3.06,34.07-.13,5.6,1.4,10.99,3.63,16.07,6.44,5.06,2.84,9.74,6.36,13.94,10.37l-8.61,8.61c-3.33-3.43-7.07-6.48-11.16-9-4.11-2.47-8.51-4.51-13.15-5.86-9.25-2.81-19.28-3.1-28.81-.97-9.51,2.17-18.52,6.81-25.79,13.51-1.85,1.64-3.53,3.46-5.17,5.32-1.56,1.92-3.1,3.86-4.42,5.96-2.73,4.14-4.84,8.69-6.42,13.41-3.09,9.48-3.75,19.82-1.74,29.7.96,4.95,2.63,9.76,4.84,14.31,2.22,4.55,5.08,8.79,8.39,12.66,6.69,7.69,15.37,13.7,25.07,17.12,9.69,3.45,20.32,4.37,30.56,2.61l.46,2.4Z"/>
    <path class="cls-1" d="m617.15,583.25c-6.63-.57-13.17-2.75-18.88-6.37-1.43-.89-2.8-1.89-4.12-2.96-1.33-1.05-2.56-2.22-3.72-3.47-.58-.62-1.19-1.22-1.76-1.85l-1.58-2.01c-1.11-1.3-1.94-2.81-2.87-4.24-.49-.71-.82-1.5-1.22-2.26-.38-.77-.78-1.53-1.14-2.31l-.93-2.41-.46-1.21c-.15-.4-.24-.83-.36-1.24l-.69-2.5c-.24-.83-.33-1.69-.5-2.54-.13-.85-.34-1.7-.4-2.57l-.2-2.59c-.47-6.94.96-13.99,3.81-20.42l.53-1.21c.19-.4.42-.78.63-1.16l1.28-2.32c.41-.78.97-1.47,1.46-2.21.51-.72.99-1.47,1.54-2.17,2.24-2.74,4.67-5.36,7.5-7.54,5.59-4.42,12.26-7.66,19.38-8.97l2.68-.46c.89-.16,1.8-.17,2.7-.26.9-.05,1.81-.18,2.72-.15l2.73.05c.91,0,1.82.09,2.72.2l2.72.32c.9.17,1.79.37,2.68.56.89.2,1.8.36,2.66.67,7.04,2.05,13.64,5.81,19.05,10.89l-8.61,8.61c-3.78-4.02-8.51-7.14-13.76-9.06-.64-.29-1.33-.44-2-.64l-2.03-.57-2.08-.37c-.69-.14-1.39-.27-2.09-.29l-2.11-.18c-.71-.07-1.41,0-2.12-.01-.71.03-1.42-.03-2.13.06l-2.12.23c-5.67.66-11.12,2.9-15.87,6.18-2.41,1.61-4.52,3.64-6.52,5.77-.49.54-.91,1.14-1.37,1.71-.43.59-.95,1.12-1.33,1.75l-1.18,1.85c-.19.31-.41.61-.59.93l-.49.98c-2.7,5.2-4.33,11.1-4.3,17.09l.03,2.25c0,.75.14,1.49.21,2.24.1.74.12,1.5.29,2.24l.46,2.21c.08.37.14.74.25,1.1l.34,1.08.67,2.17c.27.7.59,1.39.88,2.09.31.69.55,1.42.95,2.07.75,1.32,1.39,2.71,2.32,3.93l1.29,1.89c.48.6.98,1.17,1.47,1.76.97,1.19,2.01,2.32,3.16,3.35,1.13,1.04,2.32,2.03,3.57,2.93,4.99,3.63,10.92,6.06,17.12,6.98l-.28,2.4Z"/>
  </g>
  <path class="cls-2" d="m799.58,526.06c-.09,8.23-.34,11.03-1.53,13.58-2.21,4.84-6.79,7.13-15.62,7.72-3.48.34-10.27.42-21.56.42-16.29,0-21.56-.76-26.14-3.73-5.6-3.56-7.21-9.51-7.21-26.31,0-14.94,1.7-20.28,7.64-23.68,5.09-2.97,10.52-3.73,26.39-3.73,21.13,0,25.71.42,30.55,2.8,4.58,2.29,6.7,7.3,6.7,15.62v1.87h-16.46c-.34-6.2-1.61-6.7-16.55-6.7-14.09,0-16.63.34-18.76,2.21-2.04,1.87-2.46,4.16-2.46,13.32,0,13.58,1.27,14.6,17.82,14.6,12.81,0,14.68-.09,17.06-1.1,2.46-1.02,3.4-2.8,3.4-6.87h16.72Zm37.78-35.31h23.08l30.98,56.61h-18.84l-5.6-10.1h-36.49l-5.43,10.1h-19.52l31.83-56.61Zm23.59,34.71l-12.22-22.58-12.05,22.58h24.27Zm39.3-34.71h43.28c10.95,0,13.75.34,17.31,2.12,5.69,2.8,7.81,7.98,7.81,18.67s-1.95,16.38-6.62,19.26c-3.31,2.04-7.13,2.63-16.97,2.63h-27.67v13.92h-17.14v-56.61Zm42.18,28.94c7.04,0,9.08-1.53,9.08-6.88,0-6.79-1.7-8.32-9.08-8.32h-25.04v15.19h25.04Zm55.58,9.59c.17,3.9.59,4.84,2.63,5.6,1.27.51,6.11.85,11.54.85,19.94,0,22.32-.6,22.32-5.26,0-2.29-1.1-3.99-2.89-4.58q-1.87-.59-10.78-.68h-15.62c-10.44,0-14.77-.59-18.42-2.46-4.07-2.12-6.17-6.62-6.17-14.34,0-10.18,3.12-14.51,11.27-16.46,4.58-1.19,11.2-1.61,23.59-1.61,19.86,0,24.44.51,28.52,3.14,3.9,2.63,5.18,6.11,5.18,14.6h-16.8c0-4.92-1.7-5.6-12.82-5.6-5.52,0-12.9.17-15.62.34-4.58.34-6.11,1.53-6.11,4.75,0,2.38,1.19,3.9,3.65,4.5,1.02.25,1.36.34,6.96.42h16.04c1.53,0,9.17.25,12.05.42,10.78.51,15.02,5.26,15.02,16.63,0,10.44-3.06,15.02-11.37,16.8-4.24.93-12.65,1.44-24.95,1.44-19.6,0-23.93-.42-28.94-2.97-3.48-1.7-5.49-6.03-5.49-12.73,0-.51,0-1.61.09-2.8h17.12Zm104.41-24.53h25.21v-14h-67.64v14h38.99l-9.26,5.71c-2.82,1.74-4.53,4.81-4.53,8.11v28.78h17.23v-42.6Zm97.86-13.75c8.74,1.61,12.98,6.11,14.17,15.19.34,2.29.51,6.88.51,13.75,0,13.66-1.44,19.18-6.28,23.17-3.4,2.89-8.15,4.24-16.38,4.58-3.06.17-10.61.25-16.12.25-13.49,0-20.37-.25-23.76-.93-6.28-1.1-9.93-3.48-12.05-7.64-2.21-4.16-2.72-8.32-2.72-20.71,0-9.5.17-11.88,1.19-15.7,1.61-6.03,4.92-9.25,11.29-11.12,4.75-1.36,9.93-1.7,24.87-1.7,16.29,0,21.3.17,25.29.85Zm-42.26,15.02c-2.29,1.78-2.97,4.58-2.97,12.73s.68,11.37,2.8,13.15c2.29,1.87,5.09,2.21,18.08,2.21,14.85,0,17.91-.51,19.86-3.22,1.61-2.04,2.04-4.92,2.04-12.48,0-14.26-.25-14.43-21.47-14.43-12.65,0-16.12.42-18.33,2.04Zm70.54-15.28h27.41l34.29,43.03-.42-43.03h16.29v56.61h-27.67l-33.78-42.6.42,42.6h-16.55v-56.61Zm154.98,0v12.81h-45.74v9.76h43.11v11.2h-43.11v10.01h46.34v12.82h-63.31v-56.61h62.72Z"/>
  <path class="cls-1" d="m1058.81,585.25l-2.44,4.36h-5.71l12.62-22.03h6.9l12.42,22.03h-5.55l-2.51-4.36h-15.72Zm7.86-14.1l-5.91,10.54h11.89l-5.98-10.54Zm51.86-3.57v13.87c0,4.2-.66,5.91-2.77,7.1-1.88,1.09-3.76,1.29-11.56,1.29s-9.94-.46-11.56-2.28c-1.12-1.29-1.45-2.81-1.45-6.87v-13.11h5.09v11.53q0,2.94.17,3.86c.36,2.35,1.65,2.77,8.26,2.77,2.97,0,5.71-.13,6.47-.33,1.29-.33,1.98-1.12,2.18-2.51q.07-.4.1-3.47v-11.86h5.09Zm20.29,4.13h-10.37v-4.13h25.79v4.13h-10.34v17.9h-5.09v-17.9Zm52.56-2.18c.92,1.02,1.42,2.44,1.62,4.66.1,1.02.13,2.21.13,4.66,0,5.52-.53,7.63-2.21,9.12-1.22,1.06-2.87,1.59-5.65,1.75-1.06.07-5.05.13-8.12.13-6.74,0-8.55-.2-10.44-1.22-1.45-.79-2.41-2.31-2.71-4.49-.2-1.45-.26-2.64-.26-6.24,0-5.15.5-7.2,2.08-8.59,1.19-1.06,2.74-1.55,5.58-1.78,1.12-.1,4.43-.16,8.45-.16,7.79,0,9.87.4,11.53,2.18Zm-22.46,9.08c0,4.29.33,5.68,1.55,6.31,1.22.66,2.28.76,8.59.76,5.68,0,7.1-.23,7.99-1.22.76-.83.99-2.25.99-5.98,0-6.9-.07-6.97-9.58-6.97s-9.54.1-9.54,7.1Zm43.88-11.03h17.21c2.84,0,4.03.1,5.05.43,2.74.83,3.7,2.68,3.7,7.1,0,3.37-.53,5.22-1.88,6.37-1.16,1.02-2.84,1.39-6.27,1.39h-12.75v6.74h-5.05v-22.03Zm16.38,11.2c3.53,0,4.46-.69,4.46-3.4,0-2.97-.83-3.7-4.23-3.7h-11.56v7.1h11.33Zm23.93,6.47l-2.44,4.36h-5.71l12.62-22.03h6.9l12.42,22.03h-5.55l-2.51-4.36h-15.72Zm7.86-14.1l-5.91,10.54h11.89l-5.98-10.54Zm24.65-3.57h18.66c3.86,0,5.61.46,6.8,1.75.96,1.06,1.42,2.77,1.42,5.28s-.3,3.76-.96,4.59c-.66.83-1.45,1.22-2.77,1.45,2.77.23,3.4,1.09,3.37,4.59v4.36h-5.12v-3.3c-.07-3-.76-3.6-4.1-3.57h-12.25v6.87h-5.05v-22.03Zm17.14,11.1c3.7,0,4.62-.66,4.62-3.3,0-3.04-.76-3.67-4.52-3.67h-12.19v6.97h12.09Zm29.83-6.97h-10.37v-4.13h25.79v4.13h-10.34v17.9h-5.09v-17.9Zm30.04,10.93v.23c0,1.42.26,2.18.89,2.54.79.46,2.51.66,5.75.66,2.74,0,4.46-.1,6.84-.4,1.25-.16,1.88-.4,2.28-.86.43-.53.66-1.19.66-1.88,0-1.29-.56-1.92-2.08-2.25-.92-.2-.96-.2-6.97-.23h-3.17c-4.66-.03-6.47-.4-7.69-1.52-1.06-.92-1.55-2.31-1.55-4.26,0-2.44.59-4.46,1.65-5.38,1.49-1.39,4.85-1.92,12.12-1.92,4.43,0,6.8.17,8.32.63,2.74.79,3.7,2.28,3.7,5.68v.43h-4.95c-.03-1.29-.36-1.95-1.06-2.28-.93-.43-3.04-.69-5.48-.69-4.16,0-7.07.26-8.06.76-.79.36-1.19,1.12-1.19,2.15,0,.96.3,1.59.92,1.95.76.43,2.01.56,5.48.56h3.73c6.61,0,8.62.36,10.01,1.85.93.96,1.36,2.41,1.36,4.59,0,2.31-.5,3.9-1.59,4.95-1.45,1.39-4.29,1.85-11.72,1.85-7.93,0-10.4-.36-11.79-1.68-.99-.96-1.42-2.28-1.42-4.36,0-.2,0-.69.03-1.12h4.99Z"/>
</svg>